<svg width="3393.733" height="710.267" xmlns="http://www.w3.org/2000/svg"><defs><clipPath clipPathUnits="userSpaceOnUse" id="o"><path d="M12579 1510h-157c-41 0-78 25-94 62l-866 2142-559-1363h672c56 0 101-45 101-101v-74c0-56-45-101-101-101h-771l-208-502c-16-38-53-62-94-62h-156c-72 0-121 74-93 141l981 2323c16 37 53 62 93 62h274c41 0 78-24 93-62l978-2323c29-68-20-142-93-142z"/></clipPath><clipPath clipPathUnits="userSpaceOnUse" id="a"><path d="M192 1430c-106 0-192 86-192 192v2323c0 106 86 192 192 192h1530c106 0 192-86 192-192v-77c0-106-86-192-192-192H510v-733h807c106 0 192-86 192-192v-77c0-106-86-192-192-192H510v-860c0-106-86-192-192-192H192z"/></clipPath><clipPath clipPathUnits="userSpaceOnUse" id="c"><path d="M91 1622v2323c0 56 46 102 102 102h1530c56 0 102-46 102-102v-77c0-56-46-102-102-102H420v-913h897c56 0 102-46 102-102v-77c0-56-46-102-102-102H420v-950c0-56-46-102-102-102H192c-56 0-101 46-101 102z"/></clipPath><clipPath clipPathUnits="userSpaceOnUse" id="B"><path d="M23598 1583v2276c0 120 93 212 212 212 120 0 216-93 216-212v-926h999v926c0 120 93 212 212 212 120 0 216-93 216-212V1583c0-120-96-212-216-212s-212 93-212 212v926h-999v-926c0-120-96-212-216-212-119-1-212 92-212 212z"/></clipPath><clipPath clipPathUnits="userSpaceOnUse" id="e"><path d="M5551 1419c-106 0-192 86-192 192v2324c0 105 86 191 191 191h129c105 0 191-86 191-191V1880h1039c105 0 191-86 191-191v-80c0-105-86-191-191-191H5551z"/></clipPath><clipPath clipPathUnits="userSpaceOnUse" id="z"><path d="M20427 2759c4 764 644 1385 1416 1389 339 0 648-112 891-301 93-77 108-212 39-309-77-96-220-112-309-42-170 139-382 212-621 212-266 0-513-108-694-278-174-177-282-409-282-671s108-502 282-671c181-170 428-278 694-278 239 0 448 73 621 212 89 66 231 50 309-42 69-96 54-235-39-309-243-189-552-301-891-301-772 0-1412 622-1416 1389z"/></clipPath><clipPath clipPathUnits="userSpaceOnUse" id="g"><path d="M5450 1611v2324c0 55 45 100 100 100h129c55 0 100-45 100-100V1790h1129c55 0 100-45 100-100v-80c0-55-45-100-100-100H5551c-56 0-101 45-101 101z"/></clipPath><clipPath clipPathUnits="userSpaceOnUse" id="x"><path d="M18182 1583v2276c0 120 93 212 212 212h1262c112 0 212-93 212-212 0-120-100-216-212-216h-1045v-706h899c116 0 212-100 212-212 0-120-96-216-212-216h-899v-710h1045c112 0 212-96 212-216 0-116-100-212-212-212h-1250c-8 0-8 4-8 4l-4-4c-120-1-212 96-212 212z"/></clipPath><clipPath clipPathUnits="userSpaceOnUse" id="i"><path d="M9538 1419c-104 0-189 85-189 189v837H7983v-837c0-104-85-189-189-189h-132c-104 0-189 85-189 189v2329c0 104 85 189 189 189h132c104 0 189-85 189-189V2906h1366v1031c0 104 85 189 189 189h132c104 0 189-85 189-189V1608c0-104-85-189-189-189z"/></clipPath><clipPath clipPathUnits="userSpaceOnUse" id="v"><path d="M17256 3643h-613V1583c0-120-93-212-212-212-116 0-212 93-212 212v2060h-610c-120 0-212 100-212 216 0 120 93 212 212 212h1647c116 0 212-93 212-212 0-116-96-216-212-216z"/></clipPath><clipPath clipPathUnits="userSpaceOnUse" id="k"><path d="M9439 1608v927H7892v-927c0-54-44-98-98-98h-132c-54 0-98 44-98 98v2329c0 54 44 98 98 98h132c54 0 98-44 98-98V2815h1547v1122c0 54 44 98 98 98h132c54 0 98-44 98-98V1608c0-54-44-98-98-98h-132c-53 0-98 44-98 98z"/></clipPath><clipPath clipPathUnits="userSpaceOnUse" id="u"><path d="M968 5327h5327V0H968z"/></clipPath><clipPath clipPathUnits="userSpaceOnUse" id="m"><path d="M12422 1419c-78 0-147 46-177 118l-784 1937-424-1033h537c106 0 192-86 192-192v-74c0-106-86-192-192-192h-711l-184-445c-30-72-99-118-177-118h-156c-64 0-124 32-160 86s-42 121-17 181l981 2323c30 71 99 117 177 117h274c77 0 147-46 177-117l978-2323c25-59 19-127-17-180-36-54-95-86-160-86h-157z"/></clipPath><clipPath clipPathUnits="userSpaceOnUse" id="s"><path d="M15063 2208c0-364-262-742-976-742-343 0-621 94-831 241-49 34-59 102-20 148l70 84c34 41 94 48 137 17 167-120 389-209 656-209 472 0 623 242 623 439 0 651-1567 288-1567 1189 0 417 389 704 912 704 222 0 416-41 584-115 62-27 79-107 35-158l-65-76c-29-34-77-44-118-26-143 62-302 91-464 91-313 0-543-163-543-401 1-569 1567-243 1567-1186z"/></clipPath><clipPath clipPathUnits="userSpaceOnUse" id="q"><path d="M14088 1376c-337 0-642 89-883 257-44 31-74 79-81 133-7 53 9 107 43 148l70 84c36 44 90 68 147 68 40 0 79-13 112-36 122-88 326-192 603-192 392 0 532 180 532 349 0 214-234 289-620 389-218 56-443 114-622 225-218 136-324 324-324 575 0 461 422 795 1003 795 228 0 437-41 620-122 56-25 95-73 109-132 14-60-2-121-42-167l-65-76c-36-42-89-67-145-67-27 0-53 5-77 16-127 55-271 84-428 84-267 0-453-128-453-311 0-166 215-234 568-326 217-56 463-120 654-240 229-144 345-353 345-619 0-225-89-429-250-574-189-175-464-261-816-261z"/></clipPath><linearGradient x1="0" y1="0" x2="1" y2="0" gradientUnits="userSpaceOnUse" gradientTransform="matrix(0 -2700 2700 0 16432.5 4071)" spreadMethod="pad" id="w"><stop style="stop-opacity:1;stop-color:#2a705b" offset="0"/><stop style="stop-opacity:1;stop-color:#246254" offset="1"/></linearGradient><linearGradient x1="0" y1="0" x2="1" y2="0" gradientUnits="userSpaceOnUse" gradientTransform="matrix(0 -2527 2527 0 11462.7 4037)" spreadMethod="pad" id="p"><stop style="stop-opacity:1;stop-color:#53bb4c" offset="0"/><stop style="stop-opacity:1;stop-color:#4bae6d" offset="1"/></linearGradient><linearGradient x1="0" y1="0" x2="1" y2="0" gradientUnits="userSpaceOnUse" gradientTransform="matrix(0 -2795 2795 0 14109.5 4171)" spreadMethod="pad" id="r"><stop style="stop-opacity:1;stop-color:#53bb4c" offset="0"/><stop style="stop-opacity:1;stop-color:#4bae6d" offset="1"/></linearGradient><linearGradient x1="0" y1="0" x2="1" y2="0" gradientUnits="userSpaceOnUse" gradientTransform="matrix(0 -2708 2708 0 11462.5 4127)" spreadMethod="pad" id="n"><stop style="stop-opacity:1;stop-color:#53bb4c" offset="0"/><stop style="stop-opacity:1;stop-color:#4bae6d" offset="1"/></linearGradient><linearGradient x1="0" y1="0" x2="1" y2="0" gradientUnits="userSpaceOnUse" gradientTransform="matrix(0 -2613 2613 0 14109 4079)" spreadMethod="pad" id="t"><stop style="stop-opacity:1;stop-color:#53bb4c" offset="0"/><stop style="stop-opacity:1;stop-color:#4bae6d" offset="1"/></linearGradient><linearGradient x1="0" y1="0" x2="1" y2="0" gradientUnits="userSpaceOnUse" gradientTransform="matrix(0 -2525 2525 0 8665.5 4035)" spreadMethod="pad" id="l"><stop style="stop-opacity:1;stop-color:#53bb4c" offset="0"/><stop style="stop-opacity:1;stop-color:#4bae6d" offset="1"/></linearGradient><linearGradient x1="0" y1="0" x2="1" y2="0" gradientUnits="userSpaceOnUse" gradientTransform="matrix(0 -2707 2707 0 8666 4126)" spreadMethod="pad" id="j"><stop style="stop-opacity:1;stop-color:#53bb4c" offset="0"/><stop style="stop-opacity:1;stop-color:#4bae6d" offset="1"/></linearGradient><linearGradient x1="0" y1="0" x2="1" y2="0" gradientUnits="userSpaceOnUse" gradientTransform="matrix(0 -2707 2707 0 957 4137)" spreadMethod="pad" id="b"><stop style="stop-opacity:1;stop-color:#53bb4c" offset="0"/><stop style="stop-opacity:1;stop-color:#4bae6d" offset="1"/></linearGradient><linearGradient x1="0" y1="0" x2="1" y2="0" gradientUnits="userSpaceOnUse" gradientTransform="matrix(0 -2525 2525 0 6229 4035)" spreadMethod="pad" id="h"><stop style="stop-opacity:1;stop-color:#53bb4c" offset="0"/><stop style="stop-opacity:1;stop-color:#4bae6d" offset="1"/></linearGradient><linearGradient x1="0" y1="0" x2="1" y2="0" gradientUnits="userSpaceOnUse" gradientTransform="rotate(-90 11548 -7477) scale(2700.01)" spreadMethod="pad" id="y"><stop style="stop-opacity:1;stop-color:#2a705b" offset="0"/><stop style="stop-opacity:1;stop-color:#246254" offset="1"/></linearGradient><linearGradient x1="0" y1="0" x2="1" y2="0" gradientUnits="userSpaceOnUse" gradientTransform="matrix(0 -2708 2708 0 6229.5 4126)" spreadMethod="pad" id="f"><stop style="stop-opacity:1;stop-color:#53bb4c" offset="0"/><stop style="stop-opacity:1;stop-color:#4bae6d" offset="1"/></linearGradient><linearGradient x1="0" y1="0" x2="1" y2="0" gradientUnits="userSpaceOnUse" gradientTransform="matrix(0 -2778 2778 0 21621.5 4148)" spreadMethod="pad" id="A"><stop style="stop-opacity:1;stop-color:#2a705b" offset="0"/><stop style="stop-opacity:1;stop-color:#246254" offset="1"/></linearGradient><linearGradient x1="0" y1="0" x2="1" y2="0" gradientUnits="userSpaceOnUse" gradientTransform="matrix(0 -2527 2527 0 958 4047)" spreadMethod="pad" id="d"><stop style="stop-opacity:1;stop-color:#53bb4c" offset="0"/><stop style="stop-opacity:1;stop-color:#4bae6d" offset="1"/></linearGradient><linearGradient x1="0" y1="0" x2="1" y2="0" gradientUnits="userSpaceOnUse" gradientTransform="matrix(0 -2700.01 2700.01 0 24525.5 4071)" spreadMethod="pad" id="C"><stop style="stop-opacity:1;stop-color:#2a705b" offset="0"/><stop style="stop-opacity:1;stop-color:#246254" offset="1"/></linearGradient></defs><g clip-path="url(#a)" transform="matrix(.13333 0 0 -.13333 0 710.267)"><path d="M192 1430c-106 0-192 86-192 192v2323c0 106 86 192 192 192h1530c106 0 192-86 192-192v-77c0-106-86-192-192-192H510v-733h807c106 0 192-86 192-192v-77c0-106-86-192-192-192H510v-860c0-106-86-192-192-192H192" style="fill:url(#b);fill-opacity:1;fill-rule:nonzero;stroke:none"/></g><g clip-path="url(#c)" transform="matrix(.13333 0 0 -.13333 0 710.267)"><path d="M91 1622v2323c0 56 46 102 102 102h1530c56 0 102-46 102-102v-77c0-56-46-102-102-102H420v-913h897c56 0 102-46 102-102v-77c0-56-46-102-102-102H420v-950c0-56-46-102-102-102H192c-56 0-101 46-101 102" style="fill:url(#d);fill-opacity:1;fill-rule:nonzero;stroke:none"/></g><g clip-path="url(#e)" transform="matrix(.13333 0 0 -.13333 0 710.267)"><path d="M5551 1419c-106 0-192 86-192 192v2324c0 105 86 191 191 191h129c105 0 191-86 191-191V1880h1039c105 0 191-86 191-191v-80c0-105-86-191-191-191H5551v1" style="fill:url(#f);fill-opacity:1;fill-rule:nonzero;stroke:none"/></g><g clip-path="url(#g)" transform="matrix(.13333 0 0 -.13333 0 710.267)"><path d="M5450 1611v2324c0 55 45 100 100 100h129c55 0 100-45 100-100V1790h1129c55 0 100-45 100-100v-80c0-55-45-100-100-100H5551c-56 0-101 45-101 101" style="fill:url(#h);fill-opacity:1;fill-rule:nonzero;stroke:none"/></g><g clip-path="url(#i)" transform="matrix(.13333 0 0 -.13333 0 710.267)"><path d="M9538 1419c-104 0-189 85-189 189v837H7983v-837c0-104-85-189-189-189h-132c-104 0-189 85-189 189v2329c0 104 85 189 189 189h132c104 0 189-85 189-189V2906h1366v1031c0 104 85 189 189 189h132c104 0 189-85 189-189V1608c0-104-85-189-189-189h-132" style="fill:url(#j);fill-opacity:1;fill-rule:nonzero;stroke:none"/></g><g clip-path="url(#k)" transform="matrix(.13333 0 0 -.13333 0 710.267)"><path d="M9439 1608v927H7892v-927c0-54-44-98-98-98h-132c-54 0-98 44-98 98v2329c0 54 44 98 98 98h132c54 0 98-44 98-98V2815h1547v1122c0 54 44 98 98 98h132c54 0 98-44 98-98V1608c0-54-44-98-98-98h-132c-53 0-98 44-98 98" style="fill:url(#l);fill-opacity:1;fill-rule:nonzero;stroke:none"/></g><g clip-path="url(#m)" transform="matrix(.13333 0 0 -.13333 0 710.267)"><path d="M12422 1419c-78 0-147 46-177 118l-784 1937-424-1033h537c106 0 192-86 192-192v-74c0-106-86-192-192-192h-711l-184-445c-30-72-99-118-177-118h-156c-64 0-124 32-160 86s-42 121-17 181l981 2323c30 71 99 117 177 117h274c77 0 147-46 177-117l978-2323c25-59 19-127-17-180-36-54-95-86-160-86h-157v-2" style="fill:url(#n);fill-opacity:1;fill-rule:nonzero;stroke:none"/></g><g clip-path="url(#o)" transform="matrix(.13333 0 0 -.13333 0 710.267)"><path d="M12579 1510h-157c-41 0-78 25-94 62l-866 2142-559-1363h672c56 0 101-45 101-101v-74c0-56-45-101-101-101h-771l-208-502c-16-38-53-62-94-62h-156c-72 0-121 74-93 141l981 2323c16 37 53 62 93 62h274c41 0 78-24 93-62l978-2323c29-68-20-142-93-142" style="fill:url(#p);fill-opacity:1;fill-rule:nonzero;stroke:none"/></g><g clip-path="url(#q)" transform="matrix(.13333 0 0 -.13333 0 710.267)"><path d="M14088 1376c-337 0-642 89-883 257-44 31-74 79-81 133-7 53 9 107 43 148l70 84c36 44 90 68 147 68 40 0 79-13 112-36 122-88 326-192 603-192 392 0 532 180 532 349 0 214-234 289-620 389-218 56-443 114-622 225-218 136-324 324-324 575 0 461 422 795 1003 795 228 0 437-41 620-122 56-25 95-73 109-132 14-60-2-121-42-167l-65-76c-36-42-89-67-145-67-27 0-53 5-77 16-127 55-271 84-428 84-267 0-453-128-453-311 0-166 215-234 568-326 217-56 463-120 654-240 229-144 345-353 345-619 0-225-89-429-250-574-189-175-464-261-816-261" style="fill:url(#r);fill-opacity:1;fill-rule:nonzero;stroke:none"/></g><g clip-path="url(#s)" transform="matrix(.13333 0 0 -.13333 0 710.267)"><path d="M15063 2208c0-364-262-742-976-742-343 0-621 94-831 241-49 34-59 102-20 148l70 84c34 41 94 48 137 17 167-120 389-209 656-209 472 0 623 242 623 439 0 651-1567 288-1567 1189 0 417 389 704 912 704 222 0 416-41 584-115 62-27 79-107 35-158l-65-76c-29-34-77-44-118-26-143 62-302 91-464 91-313 0-543-163-543-401 1-569 1567-243 1567-1186" style="fill:url(#t);fill-opacity:1;fill-rule:nonzero;stroke:none"/></g><g clip-path="url(#u)" transform="matrix(.13333 0 0 -.13333 0 710.267)"><path d="M2485 2151c33 169 111 327 213 465s231 257 366 364c-175-96-351-198-488-344-112-119-196-273-210-438-15-174 58-358 172-487 1-1 2-3 3-4 88-101 196-173 308-245 110-71 234-117 362-139 221-38 447-13 649 83 54 26 109 53 156 90 23 18 41 39 57 64 3 4 5 9 9 12s10 5 15 6c10 3 19 3 30 4 57 9 113 21 168 38 110 33 216 81 312 142-8-10-15-20-22-30-107-150-279-270-441-354-168-87-353-142-542-157-392-32-794 107-1084 373-145 133-265 304-299 498-4 26-7 52-9 79-21 367 140 727 460 919 213 127 471 172 717 140-68-40-118-105-156-174s-65-143-92-217c-59-159-125-319-232-450s-263-233-433-238" style="fill:#347738;fill-opacity:1;fill-rule:nonzero;stroke:none"/><path d="M4422 2076c-163-54-339-64-510-43s-338 75-497 139c170-106 346-208 540-255 159-38 334-36 484 33 159 72 282 227 340 390 1 2 1 3 2 5 45 127 54 256 61 388 8 130-14 261-57 384-75 211-209 395-392 525-49 35-99 69-155 91-27 11-55 17-84 18-5 0-10 0-15 2s-9 6-13 10c-7 8-12 15-18 24-35 45-74 88-115 128-83 80-176 148-277 202 13-2 25-3 37-4 183-19 373-110 525-209 159-103 297-238 403-395 220-325 298-744 209-1127-45-192-134-381-287-505-20-17-42-32-64-47-309-199-702-236-1026-51-216 123-381 325-474 555 68-39 150-51 228-51 79 0 156 14 234 26 168 27 339 48 506 20 167-29 332-114 420-260" style="fill:#53bb4d;fill-opacity:1;fill-rule:nonzero;stroke:none"/><path d="M3517 3846c131-111 231-256 302-413s112-327 140-497c2 200-2 404-63 594-50 156-143 304-280 397-144 98-341 123-509 87-2 0-3-1-5-1-131-28-247-87-364-150-115-61-216-148-298-249-141-174-229-384-244-607-4-60-7-121 3-180 5-29 14-55 28-81 2-4 5-9 6-14s-1-11-2-16c-3-10-7-18-11-28-20-54-36-109-49-165-25-112-35-227-28-342-5 12-10 23-16 34-79 167-100 375-95 558 6 189 48 378 127 550 163 358 480 642 853 765 187 62 395 84 581 18 25-9 49-19 73-31 331-160 567-477 578-849 8-248-80-495-227-694-2 78-34 154-76 221-41 67-93 126-144 186-110 129-218 264-280 422-63 158-75 343 3 493" style="fill:#8fd469;fill-opacity:1;fill-rule:nonzero;stroke:none"/></g><g clip-path="url(#v)" transform="matrix(.13333 0 0 -.13333 0 710.267)"><path d="M17256 3643h-613V1583c0-120-93-212-212-212-116 0-212 93-212 212v2060h-610c-120 0-212 100-212 216 0 120 93 212 212 212h1647c116 0 212-93 212-212 0-116-96-216-212-216" style="fill:url(#w);fill-opacity:1;fill-rule:nonzero;stroke:none"/></g><g clip-path="url(#x)" transform="matrix(.13333 0 0 -.13333 0 710.267)"><path d="M18182 1583v2276c0 120 93 212 212 212h1262c112 0 212-93 212-212 0-120-100-216-212-216h-1045v-706h899c116 0 212-100 212-212 0-120-96-216-212-216h-899v-710h1045c112 0 212-96 212-216 0-116-100-212-212-212h-1250c-8 0-8 4-8 4l-4-4c-120-1-212 96-212 212" style="fill:url(#y);fill-opacity:1;fill-rule:nonzero;stroke:none"/></g><g clip-path="url(#z)" transform="matrix(.13333 0 0 -.13333 0 710.267)"><path d="M20427 2759c4 764 644 1385 1416 1389 339 0 648-112 891-301 93-77 108-212 39-309-77-96-220-112-309-42-170 139-382 212-621 212-266 0-513-108-694-278-174-177-282-409-282-671s108-502 282-671c181-170 428-278 694-278 239 0 448 73 621 212 89 66 231 50 309-42 69-96 54-235-39-309-243-189-552-301-891-301-772 0-1412 622-1416 1389" style="fill:url(#A);fill-opacity:1;fill-rule:nonzero;stroke:none"/></g><g clip-path="url(#B)" transform="matrix(.13333 0 0 -.13333 0 710.267)"><path d="M23598 1583v2276c0 120 93 212 212 212 120 0 216-93 216-212v-926h999v926c0 120 93 212 212 212 120 0 216-93 216-212V1583c0-120-96-212-216-212s-212 93-212 212v926h-999v-926c0-120-96-212-216-212-119-1-212 92-212 212" style="fill:url(#C);fill-opacity:1;fill-rule:nonzero;stroke:none"/></g></svg>